<svg width="181" height="75" viewBox="0 0 181 75" fill="none" xmlns="http://www.w3.org/2000/svg">
<g clip-path="url(#clip0_4_365)">
<path d="M114.992 24.6384C114.992 22.7696 113.949 21.1613 112.372 20.4365C112.477 17.9518 112.048 15.0076 108.356 14.1809C108.09 14.1217 107.8 14.0909 107.446 14.0909C102.218 14.0909 85.1103 20.9149 81.329 25.8346C80.5499 26.8483 80.2723 27.8195 80.4963 28.7243C80.6082 29.1767 80.8578 29.4917 81.1704 29.7144L75.7073 31.5264L73.9764 26.3533C76.8293 25.5669 79.7918 24.7355 80.0111 24.6739C80.5709 24.5176 80.8975 23.9302 80.7436 23.3617C80.5896 22.7933 80.0111 22.4616 79.4512 22.618C79.3556 22.644 69.9712 25.2756 68.3733 25.6545C67.13 25.9506 67.0997 25.9435 65.6138 25.5669L65.1216 25.4437C63.1598 24.9534 58.0069 23.3546 57.9556 23.338C57.4004 23.1651 56.8149 23.4825 56.6446 24.0463C56.4743 24.61 56.7869 25.2045 57.3421 25.3774C57.5567 25.4437 62.6023 27.0118 64.6224 27.5163L65.1076 27.6395C66.0336 27.8739 66.5655 27.9995 67.1323 27.9995C67.5989 27.9995 68.0911 27.9142 68.8515 27.7342C69.3461 27.6158 70.5287 27.3007 71.9447 26.9123L73.7128 32.1896L62.5626 35.8894C62.1311 36.0552 61.7112 36.292 61.3169 36.5147C60.4725 35.2332 59.2035 33.561 57.454 31.884C54.1766 28.7385 48.5268 24.9913 40.2295 24.9913C29.2075 24.9913 20.2757 28.9138 13.6812 36.6497C8.393 42.8531 6.09064 49.7742 4.98261 53.0997C4.76334 53.7582 4.53707 54.4404 4.44376 54.6062C4.26881 54.9188 4.26181 55.3002 4.42277 55.62C4.58372 55.9397 4.89397 56.1553 5.24621 56.1932C5.2672 56.1932 5.75473 56.2476 6.51052 56.2476C8.76856 56.2476 14.2317 55.7526 16.1772 51.1741C19.4406 43.4997 23.9124 32.9878 40.1735 32.9878C46.1685 32.9878 51.1768 36.8794 54.0716 39.7715L52.889 41.5717C49.278 37.5048 44.0527 34.9419 38.249 34.9419C27.3811 34.9419 18.5378 43.9213 18.5378 54.9567C18.5378 55.8213 18.5985 56.6716 18.7035 57.5054L11.8664 57.5907C11.2879 57.6025 10.826 58.1189 10.8377 58.7063C10.8493 59.2866 11.2085 59.5921 11.9084 59.5732C12.6058 59.5542 19.0534 59.4855 19.0534 59.4855C19.2493 60.343 19.4989 61.1815 19.7998 61.9939L11.8687 62.091C11.2902 62.1005 10.8283 62.6169 10.8377 63.2043C10.847 63.787 11.1666 64.0736 11.906 64.0736C12.6455 64.0736 20.6583 63.9883 20.6583 63.9883C21.701 66.0751 23.0889 67.9036 24.7521 69.5617H1.04971C0.46887 69.5617 0 70.0378 0 70.6275C0 71.2173 0.46887 71.6934 1.04971 71.6934H27.1664C27.2341 71.6934 27.3017 71.665 27.3671 71.6532C30.4882 73.7589 34.2275 75 38.2467 75C42.2659 75 45.9819 73.8252 49.096 71.6934H66.1223C66.7031 71.6934 67.172 71.2173 67.172 70.6275C67.172 70.0378 66.7031 69.5617 66.1223 69.5617H51.7436C53.5654 67.6668 55.0607 65.715 56.1267 63.3843L61.7018 63.299C61.8371 65.7245 63.8176 67.6668 66.2389 67.6668H97.6998L97.9658 67.4678C98.0264 67.4275 103.972 63.3772 106.009 62.0129C108.017 60.6675 109.286 58.4007 109.9 55.2884L114.994 24.7284V24.6384H114.992ZM82.9923 27.1468C86.3303 22.8051 102.801 16.2227 107.462 16.2227C107.709 16.2227 107.856 16.244 107.936 16.2606C110.541 16.8433 110.523 18.904 110.201 21.9808C110.168 22.2911 110.138 22.5896 110.114 22.8691C109.79 26.756 108.337 27.5163 105.934 27.5163C104.878 27.5163 103.653 27.3552 102.356 27.187C100.744 26.9762 98.9058 26.7323 97.0537 26.7702C94.2008 26.8223 91.2313 27.2273 88.6117 27.585C86.5356 27.8692 84.7418 28.1132 83.5078 28.1132C82.9829 28.1132 82.689 28.0658 82.5374 28.0279C82.5724 27.8005 82.7333 27.4879 82.9946 27.1468H82.9923ZM27.6027 61.8565C27.1081 61.0725 26.6929 60.234 26.3733 59.3482L50.274 58.8887C49.9848 59.7982 49.5999 60.6628 49.1263 61.4705L27.6027 61.8565ZM47.6544 63.5122C45.3404 66.1343 41.9813 67.7876 38.2467 67.7876C34.5121 67.7876 31.4306 66.2645 29.1306 63.8272L47.6544 63.5122ZM25.6129 54.9567C25.6129 47.8817 31.2813 42.1259 38.249 42.1259C42.6321 42.1259 46.4974 44.4045 48.7648 47.8533L45.6553 52.5881C45.6063 52.6639 45.5713 52.7445 45.541 52.825L34.8176 52.5076C34.2321 52.4981 33.7539 52.9529 33.7376 53.5427C33.7213 54.1301 34.1762 54.6228 34.757 54.6394L50.7755 55.1131C50.7755 55.1131 50.7965 55.1131 50.8059 55.1131C50.8315 55.1131 50.8549 55.1083 50.8805 55.106C50.8735 55.7005 50.8292 56.2855 50.7452 56.8587L25.8391 57.3609C25.6922 56.5816 25.6129 55.7787 25.6129 54.9544V54.9567ZM51.2467 47.9172L53.0149 45.2265C53.4278 45.8707 53.8034 46.5387 54.1346 47.2374L52.3524 50.6245C52.0702 49.6795 51.6993 48.7746 51.2467 47.9196V47.9172ZM50.7336 52.979L47.9763 52.8984L49.8938 49.9779C50.288 50.9254 50.5749 51.932 50.7336 52.979ZM52.4761 58.8437L55.4502 58.7868C55.259 59.675 55.0024 60.5348 54.6851 61.3686L51.5337 61.4254C51.9232 60.6035 52.2381 59.739 52.4761 58.8437ZM52.8656 56.8161C52.9403 56.205 52.9846 55.5868 52.9846 54.9544C52.9846 54.6346 52.9706 54.3196 52.9519 54.0046L55.1307 49.8618C55.6042 51.4772 55.8608 53.185 55.8608 54.952C55.8608 55.5607 55.8305 56.1624 55.7722 56.7545L52.8656 56.8137V56.8161ZM56.4673 47.3227L58.6087 43.2534L60.6941 56.6598L57.8809 56.7166C57.9299 56.1363 57.9625 55.5513 57.9625 54.9567C57.9625 52.2542 57.4284 49.6771 56.4696 47.3227H56.4673ZM22.0999 37.3863C18.3816 41.034 16.2658 45.5912 14.2504 50.3285C12.8834 53.545 8.86887 54.0614 6.86509 54.1111C6.90008 54.0069 6.93507 53.898 6.97473 53.7819C9.16978 47.1877 15.8459 27.1231 40.2341 27.1231C46.3131 27.1231 51.6013 29.2264 55.9564 33.3786C58.2635 35.5791 59.6864 37.8032 60.3326 38.9401L57.8226 40.7592C55.7815 38.2106 49.1147 30.8537 40.1735 30.8537C32.4896 30.8537 26.5786 32.9902 22.0999 37.384V37.3863ZM55.5529 41.3585C56.0334 41.908 56.3763 42.3438 56.5723 42.5997L55.322 44.9754C54.9977 44.4045 54.6455 43.8503 54.2676 43.3173L55.5529 41.3609V41.3585ZM20.6373 54.9567C20.6373 45.0962 28.5381 37.0737 38.249 37.0737C43.6282 37.0737 48.4499 39.5394 51.683 43.4097L50.0104 45.956C47.3185 42.3367 43.0474 39.9942 38.249 39.9942C30.1243 39.9942 23.5135 46.7068 23.5135 54.9567C23.5135 55.7905 23.5834 56.6077 23.7141 57.4059L20.8122 57.4651C20.6979 56.6456 20.6349 55.8095 20.6349 54.9591L20.6373 54.9567ZM21.1994 59.4453L24.1736 59.3884C24.4419 60.2625 24.7894 61.1009 25.2023 61.8992L22.0439 61.956C21.7033 61.1483 21.421 60.3098 21.1994 59.4453ZM38.249 72.8398C31.7572 72.8398 26.0794 69.2537 23.0259 63.9314L26.4247 63.8746C29.1119 67.5412 33.4134 69.9217 38.249 69.9217C43.0847 69.9217 47.6964 67.3636 50.3603 63.4672L53.7661 63.4104C50.7919 69.0192 44.9532 72.8422 38.249 72.8422V72.8398ZM57.601 58.7465L61.0067 58.6802L61.4056 61.2478L56.9292 61.3283C57.2068 60.4898 57.433 59.6277 57.601 58.7442V58.7465ZM107.896 54.881C107.39 57.4438 106.391 59.2132 104.852 60.2459C103.06 61.4468 98.248 64.5899 97.063 65.5374H66.2412C64.9653 65.5374 63.9156 64.5212 63.8036 63.2564L94.4854 62.7235L94.763 62.7732L95.0009 62.6287C95.2435 62.4819 100.97 59.045 103 57.6096C105.297 55.9824 105.897 54.4949 106.251 52.1499C107.329 44.9754 109.515 32.9688 109.536 32.848C109.641 32.2701 109.265 31.7135 108.694 31.6069C108.122 31.4979 107.576 31.884 107.471 32.462C107.45 32.5828 105.26 44.6225 104.175 51.8302C103.879 53.8056 103.494 54.6678 101.798 55.8687C100.063 57.098 95.2925 59.9877 94.1705 60.6628L63.526 61.2123L63.1271 58.6423L93.557 58.0573L93.8043 58.1117L94.0235 57.9933C94.1682 57.9175 97.5692 56.0984 99.6173 54.6488L99.9136 54.4404C101.924 53.0334 102.125 52.5905 102.981 47.6732C104.231 40.4987 105.332 33.2033 105.342 33.1323C105.43 32.5496 105.036 32.0072 104.462 31.9172C103.891 31.8295 103.354 32.2275 103.266 32.8101C103.254 32.8836 102.158 40.1552 100.912 47.3037C100.149 51.6881 100.121 51.7094 98.7192 52.69L98.4136 52.9079C96.7574 54.0804 94.0445 55.5797 93.2607 56.006L62.8099 56.6195L60.4539 41.4746L62.3013 40.1339C62.7119 39.8355 62.8565 39.2812 62.6419 38.817C62.6279 38.7862 62.5416 38.6014 62.3807 38.3006C62.4506 38.2556 62.5253 38.2106 62.6046 38.1632L62.9078 38.0258L74.3893 34.2147L75.7563 38.2982C75.2991 39.0301 74.9468 39.8165 74.7462 40.61L72.6888 49.0186L72.6771 49.0684C72.4299 50.3308 72.7098 51.598 73.4469 52.51C74.1794 53.4171 75.2664 53.9359 76.5097 53.9359H83.741C86.1857 53.9359 88.4811 51.9794 88.9686 49.4971L91.2919 37.1779C91.5392 35.9154 91.2593 34.6837 90.5222 33.7718C89.7897 32.8646 88.7027 32.3814 87.4593 32.3814H87.2937L79.8944 34.7856C78.9987 35.0911 78.1146 35.6549 77.3285 36.3915L76.3814 33.5586L87.3684 29.911C87.8559 29.847 88.3598 29.7759 88.8846 29.7049C91.4482 29.3543 94.3524 28.9588 97.084 28.909C98.7869 28.8782 100.464 29.0985 102.081 29.3093C103.448 29.487 104.738 29.6575 105.927 29.6575C109.886 29.6575 111.82 27.6229 112.2 23.0585C112.207 22.9827 112.214 22.9022 112.221 22.8264C112.685 23.2622 112.981 23.8781 113.005 24.565L107.891 54.8904L107.896 54.881ZM76.7803 41.1311C77.2445 39.312 78.9777 37.32 80.5523 36.7847L87.611 34.4729C88.1475 34.5061 88.6 34.724 88.8986 35.0935C89.2392 35.5151 89.3581 36.1025 89.2299 36.7539L86.9065 49.0826C86.6196 50.544 85.1687 51.797 83.7387 51.797H76.5074C75.9056 51.797 75.3947 51.5554 75.0681 51.1504C74.7299 50.7335 74.6109 50.1437 74.7299 49.5113L76.778 41.1287L76.7803 41.1311Z" fill="#263544"/>
<path d="M67.3679 38.0613C64.5174 38.0613 62.1964 40.4157 62.1964 43.3126C62.1964 46.2094 64.515 48.5638 67.3679 48.5638C70.2208 48.5638 72.5395 46.2094 72.5395 43.3126C72.5395 40.4157 70.2208 38.0613 67.3679 38.0613ZM67.3679 46.4297C65.6744 46.4297 64.2958 45.0298 64.2958 43.3102C64.2958 41.5906 65.6744 40.1907 67.3679 40.1907C69.0615 40.1907 70.4401 41.5906 70.4401 43.3102C70.4401 45.0298 69.0615 46.4297 67.3679 46.4297Z" fill="#263544"/>
<path d="M67.221 49.4686C65.7257 49.4686 64.5081 50.705 64.5081 52.2233C64.5081 53.7416 65.7257 54.978 67.221 54.978C68.7162 54.978 69.9339 53.7416 69.9339 52.2233C69.9339 50.705 68.7162 49.4686 67.221 49.4686ZM67.221 52.8439C66.8827 52.8439 66.6075 52.5644 66.6075 52.221C66.6075 51.8775 66.8827 51.598 67.221 51.598C67.5592 51.598 67.8345 51.8775 67.8345 52.221C67.8345 52.5644 67.5592 52.8439 67.221 52.8439Z" fill="#263544"/>
<path d="M117.07 12.8877L125.146 25.4508C125.344 25.7588 125.678 25.934 126.026 25.934C126.131 25.934 126.236 25.9175 126.341 25.8843C126.788 25.7422 127.089 25.3111 127.075 24.835L126.469 4.94806C126.459 4.64487 126.324 4.36064 126.096 4.16641C125.867 3.97219 125.568 3.88455 125.274 3.92481C116.504 5.16597 116.898 12.3074 116.902 12.3808C116.914 12.5608 116.972 12.7361 117.07 12.8877ZM124.407 6.25317L124.859 21.1044L118.995 11.9829C119.028 10.988 119.489 7.42327 124.407 6.25317Z" fill="#263544"/>
<path d="M100.238 31.8769C99.6686 31.7821 99.1251 32.1706 99.0271 32.7509L96.2279 49.5681C96.1323 50.1484 96.5172 50.698 97.0887 50.7974C97.147 50.8069 97.2076 50.8116 97.2659 50.8116C97.7698 50.8116 98.213 50.4445 98.2993 49.9234L101.099 33.1062C101.194 32.5259 100.809 31.9764 100.238 31.8769Z" fill="#263544"/>
<path d="M95.5794 31.8793C95.0079 31.775 94.4644 32.1659 94.3641 32.7438L90.9817 52.2849C90.8814 52.8652 91.264 53.4171 91.8331 53.519C91.8938 53.5308 91.9568 53.5356 92.0151 53.5356C92.5143 53.5356 92.9575 53.1708 93.0485 52.6544L96.4309 33.1133C96.5312 32.533 96.1486 31.9811 95.5794 31.8793Z" fill="#263544"/>
<path d="M179.95 69.5616H155.154C159.621 65.7719 162.462 59.9545 162.462 53.5545C162.462 41.9956 153.201 32.5827 141.818 32.5827C137.626 32.5827 133.723 33.8547 130.462 36.0433L129.396 34.5487C133.285 32.2748 137.271 31.1166 141.256 31.1166C150.365 31.1166 156.591 37.1826 156.651 37.2418C156.917 37.5071 157.305 37.609 157.664 37.5095L161.921 36.3252C162.266 36.2304 162.539 35.9628 162.644 35.6169C162.751 35.2711 162.677 34.8945 162.448 34.615C162.084 34.1721 153.407 23.7809 140.414 23.7809C135.275 23.7809 130.164 25.4414 125.223 28.7124L105.512 1.14167C105.232 0.73664 104.7 0.225018 103.739 0.0544774C99.643 -0.665583 90.2469 6.06604 89.1879 6.83584C88.7167 7.17929 88.6094 7.84487 88.9453 8.32333C89.2835 8.80179 89.939 8.91075 90.4102 8.56967C94.1308 5.86233 100.945 1.72672 103.378 2.15544C103.683 2.20992 103.76 2.32362 103.79 2.36625L123.502 29.9323C115.172 36.2162 112.676 44.3074 112.079 50.1413C111.397 56.8019 112.953 61.8968 113.019 62.11C113.156 62.5553 113.562 62.8537 114.019 62.8537C114.031 62.8537 114.045 62.8537 114.057 62.8537L118.332 62.695C118.638 62.6832 118.925 62.5363 119.114 62.2947C119.305 62.0508 119.382 61.7357 119.324 61.4302C119.314 61.3828 118.444 56.6077 119.256 50.9206C120.222 44.1582 123.033 39.0467 127.621 35.6998L128.769 37.3034C124.134 41.15 121.169 47.0195 121.169 53.5569C121.169 60.0943 124.01 65.7742 128.477 69.564H114.404C113.823 69.564 113.354 70.0401 113.354 70.6299C113.354 71.2197 113.823 71.6958 114.404 71.6958H131.444C134.493 73.3538 138.037 74.5192 141.813 74.5192C145.59 74.5192 149.222 73.4651 152.299 71.6176C152.413 71.6602 152.534 71.6958 152.66 71.6958H179.946C180.526 71.6958 180.995 71.2197 180.995 70.6299C180.995 70.0401 180.526 69.564 179.946 69.564L179.95 69.5616ZM140.416 25.9103C149.824 25.9103 156.987 32.0451 159.679 34.7358L157.668 35.2948C155.994 33.8073 149.891 28.9801 141.256 28.9801C136.833 28.9801 132.424 30.2686 128.155 32.8078L126.462 30.4391C131.029 27.4381 135.723 25.9103 140.418 25.9103H140.416ZM117.173 50.6766C116.564 55.0017 116.856 58.7536 117.084 60.6059L114.817 60.6888C114.432 59.0805 113.679 55.1273 114.166 50.3569C114.957 42.6233 118.51 36.3394 124.733 31.6519L126.394 33.9731C121.372 37.6611 118.199 43.3908 117.173 50.6766ZM123.273 53.5332C123.273 47.7016 125.897 42.4836 130.008 39.0254L132.163 42.0406C128.965 44.8143 126.931 48.9357 126.931 53.5332C126.931 61.8684 133.609 68.6497 141.818 68.6497C150.027 68.6497 156.705 61.8684 156.705 53.5332C156.705 45.198 150.027 38.4167 141.818 38.4167C138.888 38.4167 136.156 39.2836 133.849 40.7734L131.699 37.7653C134.61 35.8325 138.086 34.7027 141.818 34.7027C152.044 34.7027 160.363 43.1492 160.363 53.5332C160.363 63.9172 152.044 72.3637 141.818 72.3637C131.591 72.3637 123.273 63.9172 123.273 53.5332ZM141.818 51.4914C142.926 51.4914 143.829 52.4081 143.829 53.5332C143.829 54.6583 142.926 55.5749 141.818 55.5749C140.71 55.5749 139.807 54.6583 139.807 53.5332C139.807 52.4081 140.71 51.4914 141.818 51.4914ZM141.818 57.7067C144.083 57.7067 145.928 55.8355 145.928 53.5332C145.928 51.2309 144.085 49.3597 141.818 49.3597C141.253 49.3597 140.715 49.4757 140.225 49.6866L138.594 47.4079C139.555 46.8845 140.654 46.586 141.818 46.586C145.59 46.586 148.66 49.7031 148.66 53.5332C148.66 57.3632 145.59 60.4804 141.818 60.4804C138.046 60.4804 134.976 57.3632 134.976 53.5332C134.976 51.6525 135.718 49.9424 136.919 48.6917L138.566 50.994C138.032 51.6975 137.71 52.5786 137.71 53.5332C137.71 55.8331 139.553 57.7067 141.82 57.7067H141.818ZM132.877 53.5332C132.877 58.5405 136.889 62.6121 141.818 62.6121C146.749 62.6121 150.759 58.5381 150.759 53.5332C150.759 48.5283 146.747 44.4543 141.818 44.4543C140.192 44.4543 138.669 44.8996 137.353 45.6717L135.086 42.5002C137.043 41.2637 139.35 40.5484 141.818 40.5484C148.87 40.5484 154.606 46.3728 154.606 53.5332C154.606 60.6935 148.87 66.518 141.818 66.518C134.766 66.518 129.03 60.6935 129.03 53.5332C129.03 49.6439 130.724 46.1526 133.399 43.7697L135.671 46.9461C133.952 48.6017 132.877 50.9396 132.877 53.5308V53.5332Z" fill="#263544"/>
</g>
<defs>
<clipPath id="clip0_4_365">
<rect width="181" height="75" fill="white"/>
</clipPath>
</defs>
</svg>
