<svg width="250" height="250" viewBox="0 0 250 250" fill="none" xmlns="http://www.w3.org/2000/svg">
<g clip-path="url(#clip0_38_218)">
<path d="M175.204 109.47C190.228 109.47 202.408 98.2035 202.408 84.3056C202.408 70.4078 190.228 59.1414 175.204 59.1414C160.18 59.1414 148 70.4078 148 84.3056C148 98.2035 160.18 109.47 175.204 109.47Z" fill="#FFED4D"/>
<path d="M249.825 103.068C249.885 103.058 249.93 103.019 250 103.029C249.969 102.92 249.929 102.813 249.881 102.71C249.794 102.82 249.706 102.931 249.628 103.028L249.825 103.068Z" fill="white"/>
<path d="M67.3662 143.865C67.5251 149.355 68.5193 154.797 70.3194 160.031C70.3605 160.152 70.4037 160.272 70.4468 160.393H81.4677C81.456 160.284 81.4442 160.163 81.4324 160.031C80.6976 152.216 76.4609 104.653 81.5265 96.5198C81.0836 97.1796 66.5118 119.034 67.3662 143.865Z" fill="#E6E6E6"/>
<path d="M68.1932 160.031C68.2853 160.152 68.3813 160.273 68.4793 160.393H76.747C76.6843 160.29 76.6118 160.168 76.5275 160.031C75.1617 157.75 71.1189 150.932 67.3662 143.865C63.3333 136.269 59.6335 128.386 59.9451 125.532C59.8491 126.176 57.0586 145.793 68.1932 160.031Z" fill="#E6E6E6"/>
<path d="M154.106 161.338C153.967 166.124 153.101 170.869 151.531 175.432C151.495 175.537 151.458 175.642 151.42 175.748H141.812C141.822 175.653 141.833 175.547 141.843 175.432C142.483 168.619 146.177 127.153 141.761 120.062C142.147 120.637 154.851 139.69 154.106 161.338Z" fill="#E6E6E6"/>
<path d="M153.385 175.432C153.305 175.538 153.221 175.643 153.136 175.748H145.928C145.982 175.658 146.046 175.552 146.119 175.432C147.31 173.444 150.834 167.5 154.106 161.338C157.622 154.716 160.848 147.843 160.576 145.356C160.66 145.917 163.092 163.019 153.385 175.432Z" fill="#E6E6E6"/>
<path d="M44.2473 20.4255L48.728 17.1104C45.2471 16.7551 43.8169 18.5112 43.2316 19.9012C40.5122 18.8566 37.5518 20.2256 37.5518 20.2256L46.5169 23.2362C46.0646 22.1188 45.2773 21.1437 44.2473 20.4255Z" fill="#3F3D56"/>
<path d="M179.203 3.3615L183.684 0.0464262C180.203 -0.308821 178.772 1.44726 178.187 2.83722C175.468 1.79267 172.507 3.1616 172.507 3.1616L181.472 6.17227C181.02 5.05481 180.233 4.07978 179.203 3.3615Z" fill="#3F3D56"/>
<path d="M245.129 134.457C245.129 137.204 245.025 139.928 244.818 142.63C243.222 163.947 235.232 184.429 221.745 201.777C219.983 204.052 218.132 206.264 216.193 208.412C211.17 213.985 205.592 219.11 199.534 223.719L172.978 209.305L157.1 175.025C157.1 175.025 180.79 130.654 245.086 131.459C245.113 132.455 245.127 133.454 245.129 134.457Z" fill="#3F3D56"/>
<path d="M244.818 142.63C243.596 158.559 238.819 174.081 230.786 188.217C222.754 202.352 211.642 214.794 198.151 224.758L173.48 211.368L159.399 180.965C159.399 180.965 182.215 138.232 244.818 142.63Z" fill="#1FAC1C"/>
<path d="M221.745 201.777C219.983 204.052 218.132 206.264 216.193 208.412C203.203 222.85 186.603 234.142 167.832 241.309C164.032 242.759 160.141 244.037 156.162 245.144C127.426 252.213 96.9822 250.425 69.4436 240.051C42.2082 228.806 20.1992 208.947 7.36969 184.041C5.64552 180.688 4.09505 177.25 2.71826 173.727C26.7302 157.456 74.0453 134.156 125.613 156.796C139.878 163.059 152.615 168.768 163.825 173.922C192.27 186.965 211.201 196.368 221.745 201.777Z" fill="#3F3D56"/>
<path d="M216.193 208.412C202.765 223.299 185.504 234.824 165.999 241.925C146.495 249.026 125.373 251.476 104.577 249.049C83.7814 246.622 63.9792 239.396 46.9926 228.036C30.006 216.677 16.3805 201.548 7.36963 184.041C27.4236 169.372 73.6774 143.009 124.437 165.292C137.491 171.023 149.145 176.247 159.399 180.965C189.293 194.67 207.707 203.985 216.193 208.412Z" fill="#07B642"/>
<path d="M180.798 235.529C176.598 237.682 172.269 239.612 167.832 241.309C152.732 247.066 136.555 250.019 120.222 250C100.896 249.993 81.8346 245.841 64.5352 237.871C47.2358 229.902 32.1693 218.33 20.519 204.066C50.351 201.156 132.812 197.233 180.798 235.529Z" fill="#3F3D56"/>
<path d="M167.832 241.309C144.417 250.216 118.631 252.337 93.8835 247.393C69.1365 242.449 46.5948 230.673 29.2397 213.622C40.0905 212.147 125.28 202.021 167.832 241.309Z" fill="#14BB39"/>
<path d="M224.178 70.3837V70.3873C134.989 9.38692 32.803 52.3222 32.0137 52.6518V52.6482C43.5959 41.9355 57.349 33.4416 72.4852 27.6529C87.6214 21.8643 103.843 18.8946 120.222 18.9139C163.583 18.9139 201.783 39.3537 224.178 70.3837Z" fill="#E6E6E6"/>
<path d="M39.167 136.697C54.255 134.18 61.9865 109.055 56.436 80.577C50.8854 52.0993 34.1546 31.0535 19.0667 33.5699C3.97876 36.0863 -3.75283 61.212 1.79771 89.6897C7.34826 118.167 24.0791 139.213 39.167 136.697Z" fill="#00DB72"/>
<path d="M43.0448 169.955C42.1503 107.404 19.5256 48.7036 19.2972 48.1184L17.2339 48.8069C17.4611 49.3892 39.9617 107.782 40.8515 169.983L43.0448 169.955Z" fill="#8D623A"/>
<path d="M2.90407 78.0571L2.229 79.988L29.3153 88.091L29.9904 86.1601L2.90407 78.0571Z" fill="#8D623A"/>
<path d="M53.8554 75.882L31.5381 92.2317L32.9001 93.8226L55.2174 77.4729L53.8554 75.882Z" fill="#8D623A"/>
<path d="M111.716 127.679C128.306 127.679 141.754 102.295 141.754 70.9829C141.754 39.6706 128.306 14.2869 111.716 14.2869C95.1259 14.2869 81.6772 39.6706 81.6772 70.9829C81.6772 102.295 95.1259 127.679 111.716 127.679Z" fill="#00DB72"/>
<path d="M108.942 163.785C120.973 97.0142 109.063 30.4844 108.941 29.8207L106.601 30.1874C106.722 30.8478 118.564 97.0281 106.601 163.425L108.942 163.785Z" fill="#8D623A"/>
<path d="M85.2696 58.7915L84.1499 60.7279L111.313 74.1678L112.432 72.2314L85.2696 58.7915Z" fill="#8D623A"/>
<path d="M114.139 80.2529L113.519 79.1824L139.783 66.1786L140.402 67.2491L114.139 80.2529Z" fill="#8D623A" stroke="black"/>
<path d="M242.194 109.442C231.173 103.718 219.658 98.8478 207.768 94.8817C142.023 72.8754 76.8307 81.3568 51.313 112.851C71.1716 74.2683 142.031 62.1362 213.538 86.0707C221.861 88.8539 230.006 92.0726 237.933 95.7111C239.66 100.202 241.083 104.787 242.194 109.442Z" fill="#E6E6E6"/>
<path d="M153.402 47.3542L157.882 44.0391C154.401 43.6839 152.971 45.4399 152.386 46.8299C149.666 45.7853 146.706 47.1543 146.706 47.1543L155.671 50.1649C155.219 49.0475 154.432 48.0725 153.402 47.3542Z" fill="#3F3D56"/>
</g>
<defs>
<clipPath id="clip0_38_218">
<rect width="250" height="250" fill="white"/>
</clipPath>
</defs>
</svg>
