<svg width="20" height="20" viewBox="0 0 20 20" fill="none" xmlns="http://www.w3.org/2000/svg">
<path fill-rule="evenodd" clip-rule="evenodd" d="M16.0745 0.32536C15.8265 0.104014 15.5412 -0.0147976 15.2218 0.00147787C14.9025 0.00147787 14.6171 0.120289 14.3861 0.359539L12.5023 2.23285L17.7799 7.12038L19.6807 5.21289C19.9117 4.99155 20 4.70184 20 4.39586C20 4.08988 19.876 3.80018 19.645 3.59511L16.0745 0.32536ZM7.04132 17.8345C6.34829 18.0559 5.63827 18.261 4.94354 18.4823C4.25051 18.7037 3.55747 18.925 2.84576 19.1463C1.19301 19.6574 0.285954 19.9471 0.0906139 19.9976C-0.104726 20.048 0.0192723 19.3172 0.428637 17.7841L1.74336 12.9649L1.85207 12.8575L7.04302 17.8313L7.04132 17.8345ZM3.7732 10.9451L11.0755 3.65044L16.3531 8.52007L8.96244 15.9173L3.7732 10.9451Z" fill="#AFA9A9"/>
</svg>
