<svg width="510" height="364" viewBox="0 0 510 364" fill="none" xmlns="http://www.w3.org/2000/svg">
<g clip-path="url(#clip0_28_100)">
<path d="M101.748 328.616C111.013 341.074 130.246 342.385 130.246 342.385C130.246 342.385 134.457 323.498 125.192 311.041C115.927 298.583 96.6933 297.271 96.6933 297.271C96.6933 297.271 92.4823 316.158 101.748 328.616Z" fill="#59B162"/>
<path d="M148.948 333.3C142.834 341.52 130.142 342.385 130.142 342.385C130.142 342.385 127.363 329.922 133.477 321.702C139.591 313.481 152.283 312.616 152.283 312.616C152.283 312.616 155.062 325.079 148.948 333.3Z" fill="#59B162"/>
<path d="M509.658 341.785H83.0002V343.231H509.658V341.785Z" fill="#3F3D56"/>
<path d="M491.556 76.5856L495.273 78.4515C495.273 78.4515 515.406 129.141 508.592 141.269C501.778 153.397 480.405 176.099 480.405 176.099L476.379 164.592L492.847 128.747L491.556 76.5856Z" fill="#F5F1C5"/>
<path d="M487.529 330.033C487.529 330.033 492.795 342.161 490.007 343.094C487.22 344.027 483.812 344.027 480.405 344.027C476.998 344.027 472.971 342.783 472.352 341.539C471.732 340.295 474.83 332.209 474.83 332.209L487.529 330.033Z" fill="#575A89"/>
<path d="M416.598 336.252C416.598 336.252 420.006 347.136 418.457 347.758C416.908 348.38 411.952 351.179 409.165 350.246C406.377 349.313 402.04 347.137 401.111 346.204C400.182 345.271 401.111 340.295 401.111 340.295L405.448 334.075L416.598 336.252Z" fill="#575A89"/>
<path d="M477.618 174.544L482.058 176.099C482.058 176.099 483.193 186.672 481.954 190.404C480.715 194.135 477.927 221.19 479.476 226.788C481.025 232.386 480.096 241.404 480.096 241.404C480.096 241.404 489.388 271.88 487.529 278.41C485.671 284.941 485.981 294.27 487.839 298.935C489.698 303.6 491.246 305.465 490.317 309.197C489.388 312.929 487.529 314.795 489.388 317.905C491.246 321.014 494.963 321.947 493.105 324.746C491.246 327.545 489.388 329.722 490.007 331.588C490.627 333.453 473.591 336.874 472.042 334.075C472.042 334.075 476.998 329.722 472.042 327.234C467.086 324.746 468.635 315.417 468.635 315.417C468.635 315.417 459.962 279.654 460.272 276.855C460.582 274.057 446.643 230.52 446.643 230.52C446.643 230.52 426.2 292.715 424.961 295.514C423.722 298.313 426.51 305.154 424.961 307.02C423.413 308.886 425.581 313.551 423.413 315.417C421.245 317.283 427.13 324.124 423.413 326.612C419.696 329.1 417.837 336.874 418.147 338.429C418.457 339.984 402.66 338.118 402.66 335.941C402.66 333.764 402.97 331.899 401.421 328.167C399.872 324.435 398.943 321.947 400.182 320.703C401.421 319.459 402.35 317.905 401.111 313.551C399.872 309.197 402.97 295.825 402.04 293.337C401.111 290.849 401.421 274.057 401.421 274.057C401.421 274.057 404.518 249.489 403.589 245.447C402.66 241.404 403.589 240.471 403.899 238.916C404.209 237.361 406.067 220.568 407.306 218.081C408.545 215.593 410.094 172.989 417.218 170.812C424.342 168.635 477.618 174.544 477.618 174.544Z" fill="#2F2E41"/>
<path d="M480.096 341.228C480.096 341.228 491.246 339.362 491.866 341.228C492.485 343.094 494.344 357.71 490.007 358.021C485.671 358.332 478.237 359.265 476.998 356.466C475.759 353.667 469.874 351.801 469.874 351.801C469.874 351.801 461.201 349.313 461.201 346.515C461.201 343.716 461.511 339.362 463.06 339.051C464.609 338.74 470.803 335.319 470.803 334.075C470.803 332.832 480.096 341.228 480.096 341.228Z" fill="#2F2E41"/>
<path d="M410.403 346.204C410.403 346.204 418.457 343.716 420.315 345.271C422.174 346.825 424.652 363.929 420.315 363.618C415.979 363.307 404.518 365.173 403.899 362.685C403.279 360.198 394.916 359.576 394.916 359.576C394.916 359.576 385.934 355.222 386.553 350.557C387.173 345.893 388.102 344.338 391.819 344.027C395.536 343.716 398.324 339.362 398.633 339.051C398.943 338.74 401.674 336.467 402.012 339.003C402.35 341.539 406.377 347.136 410.403 346.204Z" fill="#2F2E41"/>
<path d="M435.802 44.8658C446.238 44.8658 454.697 36.3728 454.697 25.8962C454.697 15.4195 446.238 6.92651 435.802 6.92651C425.367 6.92651 416.908 15.4195 416.908 25.8962C416.908 36.3728 425.367 44.8658 435.802 44.8658Z" fill="#A0616A"/>
<path d="M452.219 30.2498C452.219 30.2498 453.458 51.0853 458.104 52.9512C462.75 54.817 434.564 54.817 434.564 54.817C434.564 54.817 434.254 41.7559 430.227 38.6462C426.2 35.5364 452.219 30.2498 452.219 30.2498Z" fill="#A0616A"/>
<path d="M459.653 48.2865C459.653 48.2865 440.448 41.134 433.634 52.3292C433.634 52.3292 411.952 62.5915 410.403 68.811C408.855 75.0306 423.413 121.677 423.413 121.677C423.413 121.677 423.413 160.239 420.315 164.281C417.218 168.324 411.333 172.678 415.359 173.611C419.386 174.544 482.573 181.385 482.264 177.342C481.954 173.3 477.927 169.879 482.264 167.391C486.6 164.903 482.883 162.104 485.671 154.019C488.459 145.934 495.273 79.0733 495.273 79.0733C495.273 79.0733 490.627 70.6769 489.698 69.744C488.768 68.811 459.653 48.2865 459.653 48.2865Z" fill="#F5F1C5"/>
<path d="M404.209 184.495C404.209 184.495 392.129 211.861 402.66 215.593C413.191 219.324 412.572 186.672 412.572 186.672L404.209 184.495Z" fill="#A0616A"/>
<path d="M444.865 29.4241C443.77 27.2209 442.131 24.6792 439.682 24.8133C438.443 24.8812 437.375 25.6548 436.272 26.2226C435.168 26.7905 433.754 27.1425 432.745 26.4188C431.269 25.3602 431.726 22.8494 430.406 21.6005C428.965 20.2372 426.066 20.9984 425.136 19.2431C424.639 18.3059 425.04 17.143 424.824 16.1039C423.316 16.2332 421.798 16.0561 420.36 15.5832C418.961 15.0141 417.75 13.6955 417.789 12.1811C417.831 11.6651 417.975 11.1627 418.213 10.7033C418.451 10.244 418.777 9.83679 419.173 9.5057C421.078 7.76745 423.832 7.43411 426.181 6.37989C428.051 5.54095 429.677 4.23346 431.515 3.32596C434.678 1.76408 438.327 1.46119 441.841 1.73084C447.17 2.13969 452.559 3.91526 456.424 7.622C460.288 11.3287 462.333 17.1766 460.667 22.2749C459.722 25.1638 457.721 27.5921 456.604 30.4183C455.919 32.3524 455.445 34.355 455.189 36.3914L454.404 41.2215C454.527 40.4698 452.883 38.5844 452.343 38.1357C451.167 37.1571 449.457 37.4892 448.365 36.5827C446.75 35.242 445.816 31.3356 444.865 29.4241Z" fill="#2F2E41"/>
<path opacity="0.1" d="M417.528 66.6342L412.572 69.744C412.572 69.744 404.518 118.568 405.448 125.409C406.377 132.251 401.731 170.812 403.28 173.922C404.828 177.031 405.448 177.653 405.448 179.519C405.448 181.385 401.111 188.227 403.899 189.471C406.687 190.714 416.908 192.891 416.908 189.471C416.908 186.05 415.05 181.385 418.457 179.208C421.864 177.031 424.342 163.037 424.342 163.037C424.342 163.037 425.891 148.732 427.439 145.934C428.988 143.135 431.156 132.873 431.156 128.519C431.156 124.165 434.873 106.439 432.705 97.421C430.537 88.4027 429.917 64.1464 417.528 66.6342Z" fill="black"/>
<path d="M415.359 65.7014L410.404 68.8111C410.404 68.8111 402.35 117.635 403.28 124.476C404.209 131.318 399.563 169.879 401.111 172.989C402.66 176.099 403.28 176.721 403.28 178.586C403.28 180.452 398.943 187.294 401.731 188.538C404.518 189.782 414.74 191.958 414.74 188.538C414.74 185.117 412.882 180.452 416.289 178.275C419.696 176.099 422.174 162.105 422.174 162.105C422.174 162.105 423.723 147.8 425.271 145.001C426.82 142.202 428.988 131.94 428.988 127.586C428.988 123.232 432.705 105.507 430.537 96.4882C428.369 87.4698 427.749 63.2135 415.359 65.7014Z" fill="#F5F1C5"/>
<path d="M364.697 0H0V183.698H364.697V0Z" fill="#E6E6E6"/>
<path d="M347.95 14.9449H16.7463V168.753H347.95V14.9449Z" fill="white"/>
<path d="M67.1847 71.5509L80.7855 57.8952L104.93 82.1367L105.284 82.4923L105.638 82.1367L135.365 52.291L186.181 103.309L186.535 103.664L186.889 103.309L209.793 80.3131L260.298 131.019L260.652 131.375L261.007 131.019L289.183 102.73L341.636 155.392L341.465 155.564L289.537 103.43L289.183 103.075L288.829 103.43L260.652 131.719L210.148 81.0123L209.793 80.6566L209.439 81.0123L186.535 104.009L135.72 52.9909L135.365 52.6352L135.011 52.9909L105.284 82.8365L81.1397 58.595L80.7855 58.2393L80.4312 58.595L66.8304 72.2501L23.0609 28.3066L23.2323 28.1345L66.4762 71.5509L66.8304 71.9066L67.1847 71.5509Z" fill="#518E02" stroke="black"/>
<path d="M137.537 60.8695C141.647 60.8695 144.979 57.524 144.979 53.397C144.979 49.2701 141.647 45.9246 137.537 45.9246C133.426 45.9246 130.094 49.2701 130.094 53.397C130.094 57.524 133.426 60.8695 137.537 60.8695Z" fill="black"/>
<path d="M185.294 110.063C189.405 110.063 192.737 106.718 192.737 102.591C192.737 98.464 189.405 95.1184 185.294 95.1184C181.184 95.1184 177.852 98.464 177.852 102.591C177.852 106.718 181.184 110.063 185.294 110.063Z" fill="#0B0B0C"/>
<path d="M288.873 110.063C292.984 110.063 296.316 106.718 296.316 102.591C296.316 98.464 292.984 95.1184 288.873 95.1184C284.763 95.1184 281.43 98.464 281.43 102.591C281.43 106.718 284.763 110.063 288.873 110.063Z" fill="black"/>
<path opacity="0.1" d="M491.177 77L494.894 78.8659C494.894 78.8659 515.027 129.555 508.213 141.683C501.399 153.812 480.027 176.513 480.027 176.513L476 165.007L492.468 129.161L491.177 77Z" fill="#F5F1C5"/>
</g>
<defs>
<clipPath id="clip0_28_100">
<rect width="510" height="364" fill="white"/>
</clipPath>
</defs>
</svg>
