<svg width="123" height="104" viewBox="0 0 123 104" fill="none" xmlns="http://www.w3.org/2000/svg">
<g clip-path="url(#clip0_32_221)">
<path fill-rule="evenodd" clip-rule="evenodd" d="M112.712 98.9703V103.08C112.712 104.144 111.756 104.998 110.586 104.998H13.8446C12.6646 104.998 11.7185 104.135 11.7185 103.08V98.9703V77.2459V54.0354C9.33817 54.8611 7.11037 54.8794 5.25897 54.3106C3.81446 53.8703 2.59375 53.0813 1.69857 52.063C0.80338 51.0446 0.233716 49.8061 0.0607827 48.4392C-0.203704 46.32 0.498203 43.9255 2.5022 41.6779C2.60393 41.5678 2.71582 41.4577 2.84807 41.3659L60.8826 0.504365C61.6354 -0.119476 62.795 -0.183694 63.6292 0.40345L121.806 41.1916C121.898 41.2558 121.979 41.3201 122.06 41.4026C124.756 44.0173 125.428 46.9163 124.777 49.3658C124.451 50.5768 123.81 51.6685 122.925 52.5584C122.04 53.4574 120.911 54.1547 119.629 54.5675C117.595 55.228 115.174 55.2097 112.722 54.1638V77.2459V98.9703H112.712ZM5.66587 44.2466C4.53671 45.5769 4.13998 46.9071 4.27223 48.0263C4.35361 48.6685 4.60792 49.2373 5.01482 49.696C5.41156 50.1456 5.9507 50.485 6.60175 50.6868C7.71056 51.0263 9.14489 50.9345 10.7827 50.2373L61.4319 15.4857C62.2152 14.9444 63.2833 14.972 64.0259 15.4949L113.231 49.9896C113.251 50.008 113.271 50.0263 113.302 50.0355C115.102 51.2098 116.832 51.3933 118.175 50.9621C118.795 50.7602 119.334 50.43 119.751 49.9988C120.179 49.5676 120.484 49.0539 120.636 48.4759C120.972 47.2099 120.565 45.6502 119.06 44.1273L62.3271 4.34832L5.66587 44.2466ZM30.1106 69.2553H57.2713C58.3293 69.2553 59.1939 70.0167 59.1939 70.9525V90.1173C59.1939 91.053 58.3293 91.8145 57.2713 91.8145H30.1106C29.0526 91.8145 28.1879 91.053 28.1879 90.1173V70.9525C28.1981 70.0167 29.0526 69.2553 30.1106 69.2553ZM68.8986 67.5672H94.4012C95.5405 67.5672 96.4662 68.4296 96.4662 69.4938V101.163H108.45V51.8978C108.45 51.7694 108.46 51.6501 108.49 51.5309L62.7035 19.4306L15.8995 51.5492C15.9503 51.7052 15.9707 51.8703 15.9707 52.0446V101.154H66.8335V69.4846C66.8335 68.4204 67.7592 67.5672 68.8986 67.5672ZM92.3362 71.4112H70.9738V101.117H92.3362V71.4112ZM55.3487 82.2275H45.2677V88.42H55.3487V82.2275ZM41.5038 82.2275H32.0332V88.42H41.5038V82.2275ZM32.0332 78.8331H41.5038V72.6497H32.0332V78.8331ZM45.2677 78.8331H55.3487V72.6497H45.2677V78.8331ZM61.9304 33.3294C65.5416 33.3294 68.4713 35.9715 68.4713 39.2284C68.4713 42.4852 65.5416 45.1273 61.9304 45.1273C58.3191 45.1273 55.3894 42.4852 55.3894 39.2284C55.3894 35.9624 58.3191 33.3294 61.9304 33.3294Z" fill="#263544"/>
</g>
<defs>
<clipPath id="clip0_32_221">
<rect width="123" height="104" fill="white"/>
</clipPath>
</defs>
</svg>
