<svg width="199" height="81" viewBox="0 0 199 81" fill="none" xmlns="http://www.w3.org/2000/svg">
<g clip-path="url(#clip0_30_186)">
<path d="M44.9181 47.7805C38.1472 47.7805 32.6396 53.2161 32.6396 59.8984C32.6396 66.5807 38.1472 72.0162 44.9181 72.0162C51.6889 72.0162 57.1965 66.5784 57.1965 59.8984C57.1965 53.2183 51.6889 47.7805 44.9181 47.7805ZM44.9181 69.9596C39.2969 69.9596 34.7258 65.446 34.7258 59.9007C34.7258 54.3553 39.2993 49.8417 44.9181 49.8417C50.5369 49.8417 55.1103 54.3553 55.1103 59.9007C55.1103 65.446 50.5369 69.9596 44.9181 69.9596Z" fill="#263544"/>
<path d="M15.2988 51.816C15.2988 54.2753 17.327 56.277 19.8189 56.277H20.1133C20.5305 56.277 20.9083 56.0322 21.0729 55.6525C25.8387 44.6693 28.472 38.6092 29.121 37.1245C30.1432 34.7911 31.7473 34.313 33.8427 34.313H52.8503C54.3176 34.313 55.5067 34.528 57.4376 37.2984C58.694 39.0988 64.9711 48.3616 70.0174 55.8172C70.2098 56.1031 70.5366 56.2747 70.8843 56.2747H137.867C138.285 56.2747 138.663 56.0299 138.827 55.6502C143.593 44.667 146.226 38.6069 146.875 37.1222C147.897 34.7888 149.501 34.3107 151.597 34.3107H170.605C172.072 34.3107 173.261 34.5257 175.192 37.2961C175.54 37.7925 176.277 38.8723 177.452 40.5972C177.723 40.9953 178.238 41.1554 178.69 40.9838C179.142 40.8123 179.418 40.3547 179.35 39.8789L177.559 27.2555C177.517 24.8397 175.521 22.886 173.069 22.87L130.181 20.612L117.604 0.489564C117.413 0.185302 117.077 0 116.716 0H25.8457C23.3955 0 21.3928 1.93538 21.3279 4.33745L19.9649 10.2351C19.3947 8.41639 17.6747 7.08953 15.6465 7.08953H4.52009C2.02825 7.09182 0 9.09354 0 11.5528V41.7502C0 44.2095 2.02825 46.2112 4.52009 46.2112H15.2988V51.816ZM23.3863 4.68975C23.4025 4.61426 23.4118 4.53876 23.4118 4.46098C23.4118 3.13641 24.5035 2.05891 25.8457 2.05891H87.4163C87.4001 2.13212 87.3885 2.2099 87.3885 2.28768V41.3316C87.3885 43.8823 87.0129 45.4082 86.1692 46.2844C85.2907 47.1972 83.6519 47.6227 81.014 47.6227C80.4368 47.6227 79.9709 48.0825 79.9709 48.6522C79.9709 49.2218 80.4368 49.6816 81.014 49.6816C87.261 49.6816 89.4747 47.4969 89.4747 41.3316V2.28768C89.4747 2.2099 89.4631 2.13212 89.4468 2.05891H116.134L128.693 22.1585C128.871 22.4467 129.184 22.6275 129.525 22.6458L169.214 24.7344V29.9664C169.214 30.536 169.68 30.9958 170.257 30.9958C170.834 30.9958 171.3 30.536 171.3 29.9664V24.8442L172.983 24.9335C173.001 24.9335 173.02 24.9335 173.038 24.9335C174.381 24.9335 175.472 26.011 175.472 27.3355C175.472 27.3836 175.475 27.4316 175.482 27.4774L176.661 35.7817C174.522 32.8557 172.746 32.254 170.605 32.254H151.597C149.511 32.254 146.551 32.675 144.961 36.3055C144.323 37.7651 141.776 43.6238 137.181 54.2158H71.443C66.45 46.838 60.3931 37.9046 59.1576 36.1317C56.9068 32.9037 55.0756 32.254 52.8503 32.254H33.8427C31.7566 32.254 28.7965 32.675 27.2063 36.3055C26.5689 37.7628 24.026 43.6147 19.4387 54.1861C18.2774 54.0053 17.385 53.0102 17.385 51.8137V30.6733L17.8648 28.5938H21.0938V37.5157H19.0076C18.4304 37.5157 17.9645 37.9755 17.9645 38.5452C17.9645 39.1148 18.4304 39.5746 19.0076 39.5746H23.18V28.5938H36.1607C36.7379 28.5938 37.2038 28.1339 37.2038 27.5643C37.2038 26.9947 36.7379 26.5348 36.1607 26.5348H18.34L20.1364 18.7567H20.1666V18.6286L23.3863 4.68746V4.68975ZM4.52009 44.1523C3.17797 44.1523 2.0862 43.0748 2.0862 41.7502V11.5528C2.0862 10.2282 3.17797 9.15073 4.52009 9.15073H15.6465C16.9886 9.15073 18.0804 10.2282 18.0804 11.5528V18.3975L15.3243 30.3301C15.308 30.4056 15.2988 30.4811 15.2988 30.5589V44.15H4.52009V44.1523Z" fill="#263544"/>
<path d="M91.7926 28.596H101.528C102.105 28.596 102.571 28.1362 102.571 27.5666C102.571 26.9969 102.105 26.5371 101.528 26.5371H91.7926C91.2154 26.5371 90.7495 26.9969 90.7495 27.5666C90.7495 28.1362 91.2154 28.596 91.7926 28.596Z" fill="#263544"/>
<path d="M71.6263 26.5371H61.8908C61.3136 26.5371 60.8477 26.9969 60.8477 27.5666C60.8477 28.1362 61.3136 28.596 61.8908 28.596H71.6263C72.2035 28.596 72.6694 28.1362 72.6694 27.5666C72.6694 26.9969 72.2035 26.5371 71.6263 26.5371Z" fill="#263544"/>
<path d="M120.999 47.1263H101.76C101.183 47.1263 100.717 47.5861 100.717 48.1557C100.717 48.7253 101.183 49.1852 101.76 49.1852H120.999C123.378 49.1852 125.246 48.4874 126.551 47.1102C128.498 45.0559 128.435 42.2283 128.417 41.8371V27.6809C128.417 27.1113 127.951 26.6515 127.374 26.6515C126.797 26.6515 126.331 27.1113 126.331 27.6809V41.8646C126.331 41.8852 126.331 41.908 126.331 41.9286C126.331 41.9515 126.449 44.214 125.014 45.7148C124.119 46.6504 122.768 47.1263 120.997 47.1263H120.999Z" fill="#263544"/>
<path d="M63.8609 23.7919H80.3187C82.8105 23.7919 84.8388 21.7902 84.8388 19.3309V8.35002C84.8388 5.89076 82.8105 3.88904 80.3187 3.88904H63.8609C61.3691 3.88904 59.3408 5.89076 59.3408 8.35002V19.3309C59.3408 21.7902 61.3691 23.7919 63.8609 23.7919ZM61.427 8.35002C61.427 7.02545 62.5188 5.94795 63.8609 5.94795H80.3187C81.6608 5.94795 82.7526 7.02545 82.7526 8.35002V19.3309C82.7526 20.6555 81.6608 21.733 80.3187 21.733H63.8609C62.5188 21.733 61.427 20.6555 61.427 19.3309V8.35002Z" fill="#263544"/>
<path d="M31.6405 23.7919H51.1117C53.6035 23.7919 55.6318 21.7902 55.6318 19.3309V8.35002C55.6318 5.89076 53.6035 3.88904 51.1117 3.88904H34.3827C31.8607 3.88904 29.6424 5.73291 29.2228 8.16014L27.1366 19.141C27.1366 19.141 27.1343 19.157 27.132 19.1639C26.9466 20.2849 27.2433 21.3669 27.9688 22.2088C28.8218 23.1994 30.1941 23.7896 31.6382 23.7896L31.6405 23.7919ZM29.1904 19.5071L31.2766 8.5216C31.5246 7.07807 32.8899 5.94795 34.3827 5.94795H51.1117C52.4538 5.94795 53.5456 7.02545 53.5456 8.35002V19.3309C53.5456 20.6555 52.4538 21.733 51.1117 21.733H31.6405C30.813 21.733 30.0156 21.4058 29.5613 20.8774C29.2321 20.4953 29.1069 20.0332 29.1927 19.5071H29.1904Z" fill="#263544"/>
<path d="M96.3127 23.7919H117.87C119.342 23.7919 120.858 23.0598 121.732 21.9251C122.406 21.0512 122.627 20.0332 122.353 19.0564C122.341 19.0152 122.328 18.974 122.311 18.9351L117.678 7.95883C116.63 5.44924 114.618 3.88904 112.425 3.88904H96.315C93.8232 3.88904 91.7949 5.89076 91.7949 8.35002V19.3309C91.7949 21.7902 93.8232 23.7919 96.315 23.7919H96.3127ZM93.8788 8.35002C93.8788 7.02545 94.9706 5.94795 96.3127 5.94795H112.423C114.013 5.94795 115.184 7.39148 115.747 8.74579L120.353 19.658C120.429 19.9943 120.334 20.3375 120.07 20.6783C119.59 21.2983 118.686 21.733 117.868 21.733H96.3104C94.9683 21.733 93.8765 20.6555 93.8765 19.3309V8.35002H93.8788Z" fill="#263544"/>
<path d="M80.4343 73.2059H61.5009C64.5004 69.573 66.3015 64.9382 66.3015 59.8984C66.3015 48.2633 56.7096 38.7946 44.918 38.7946C33.1263 38.7946 23.5345 48.261 23.5345 59.8984C23.5345 64.9405 25.3356 69.573 28.335 73.2059H8.80824C8.23105 73.2059 7.76514 73.6657 7.76514 74.2353C7.76514 74.805 8.23105 75.2648 8.80824 75.2648H30.1338C30.1802 75.2648 30.2219 75.2579 30.2659 75.2511C34.0953 78.813 39.2528 81 44.918 81C50.5832 81 55.7291 78.8176 59.5561 75.2648H80.432C81.0092 75.2648 81.4751 74.805 81.4751 74.2353C81.4751 73.6657 81.0092 73.2059 80.432 73.2059H80.4343ZM25.623 59.8984C25.623 49.398 34.2784 40.8535 44.9203 40.8535C55.5622 40.8535 64.2176 49.3957 64.2176 59.8984C64.2176 65.1578 62.0457 69.9253 58.5432 73.3752C58.4389 73.4415 58.3485 73.5285 58.2743 73.6268C54.8042 76.9142 50.101 78.9434 44.9203 78.9434C34.2807 78.9434 25.623 70.4012 25.623 59.8984Z" fill="#263544"/>
<path d="M44.8532 62.6071C44.276 62.6071 43.8101 63.0669 43.8101 63.6365V66.7615C43.8101 67.3311 44.276 67.7909 44.8532 67.7909C45.4303 67.7909 45.8963 67.3311 45.8963 66.7615V63.6365C45.8963 63.0669 45.4303 62.6071 44.8532 62.6071Z" fill="#263544"/>
<path d="M48.351 61.7881C47.9431 61.3854 47.2824 61.3854 46.8768 61.7881C46.4688 62.1907 46.4688 62.8427 46.8768 63.243L49.116 65.4529C49.3199 65.6542 49.5865 65.7549 49.8531 65.7549C50.1197 65.7549 50.3862 65.6542 50.5902 65.4529C50.9982 65.0503 50.9982 64.3983 50.5902 63.998L48.351 61.7881Z" fill="#263544"/>
<path d="M51.8862 58.7935H48.7199C48.1427 58.7935 47.6768 59.2533 47.6768 59.8229C47.6768 60.3925 48.1427 60.8524 48.7199 60.8524H51.8862C52.4634 60.8524 52.9293 60.3925 52.9293 59.8229C52.9293 59.2533 52.4634 58.7935 51.8862 58.7935Z" fill="#263544"/>
<path d="M47.5817 58.2033C47.8482 58.2033 48.1148 58.1026 48.3188 57.9013L50.558 55.6914C50.9659 55.2888 50.9659 54.6368 50.558 54.2364C50.15 53.8338 49.4894 53.8338 49.0837 54.2364L46.8445 56.4463C46.4366 56.849 46.4366 57.5009 46.8445 57.9013C47.0485 58.1026 47.3151 58.2033 47.5817 58.2033Z" fill="#263544"/>
<path d="M44.8532 57.1143C45.4303 57.1143 45.8963 56.6545 45.8963 56.0849V52.9599C45.8963 52.3902 45.4303 51.9304 44.8532 51.9304C44.276 51.9304 43.8101 52.3902 43.8101 52.9599V56.0849C43.8101 56.6545 44.276 57.1143 44.8532 57.1143Z" fill="#263544"/>
<path d="M41.4319 57.9356C41.6359 58.1369 41.9024 58.2376 42.169 58.2376C42.4356 58.2376 42.7021 58.1369 42.9061 57.9356C43.3141 57.533 43.3141 56.881 42.9061 56.4806L40.6669 54.2707C40.259 53.8681 39.5983 53.8681 39.1927 54.2707C38.7847 54.6734 38.7847 55.3253 39.1927 55.7257L41.4319 57.9356Z" fill="#263544"/>
<path d="M42.1085 59.8229C42.1085 59.2533 41.6426 58.7935 41.0654 58.7935H37.8991C37.3219 58.7935 36.856 59.2533 36.856 59.8229C36.856 60.3925 37.3219 60.8524 37.8991 60.8524H41.0654C41.6426 60.8524 42.1085 60.3925 42.1085 59.8229Z" fill="#263544"/>
<path d="M41.4641 61.82L39.2249 64.0299C38.817 64.4326 38.817 65.0846 39.2249 65.4849C39.4289 65.6862 39.6955 65.7869 39.962 65.7869C40.2286 65.7869 40.4952 65.6862 40.6992 65.4849L42.9384 63.275C43.3463 62.8724 43.3463 62.2204 42.9384 61.82C42.5304 61.4174 41.8698 61.4174 41.4641 61.82Z" fill="#263544"/>
<path d="M162.441 47.7805C155.67 47.7805 150.162 53.2161 150.162 59.8984C150.162 66.5807 155.67 72.0162 162.441 72.0162C169.211 72.0162 174.719 66.5784 174.719 59.8984C174.719 53.2183 169.211 47.7805 162.441 47.7805ZM162.441 69.9596C156.819 69.9596 152.248 65.446 152.248 59.9007C152.248 54.3553 156.822 49.8417 162.441 49.8417C168.059 49.8417 172.633 54.3553 172.633 59.9007C172.633 65.446 168.059 69.9596 162.441 69.9596Z" fill="#263544"/>
<path d="M197.957 73.2059H179.023C182.023 69.573 183.824 64.9382 183.824 59.8984C183.824 48.2633 174.232 38.7946 162.44 38.7946C150.649 38.7946 141.057 48.261 141.057 59.8984C141.057 64.9405 142.858 69.573 145.857 73.2059H126.328C125.751 73.2059 125.285 73.6657 125.285 74.2353C125.285 74.805 125.751 75.2648 126.328 75.2648H147.654C147.698 75.2648 147.742 75.2579 147.786 75.2511C151.615 78.813 156.773 81 162.438 81C168.103 81 173.249 78.8176 177.076 75.2648H197.952C198.529 75.2648 198.995 74.805 198.995 74.2353C198.995 73.6657 198.529 73.2059 197.952 73.2059H197.957ZM143.145 59.8984C143.145 49.398 151.801 40.8535 162.443 40.8535C173.085 40.8535 181.74 49.3957 181.74 59.8984C181.74 65.1578 179.568 69.9253 176.066 73.3752C175.961 73.4415 175.871 73.5285 175.797 73.6268C172.327 76.9142 167.623 78.9434 162.443 78.9434C151.803 78.9434 143.145 70.4012 143.145 59.8984Z" fill="#263544"/>
<path d="M162.376 62.6071C161.798 62.6071 161.333 63.0669 161.333 63.6365V66.7615C161.333 67.3311 161.798 67.7909 162.376 67.7909C162.953 67.7909 163.419 67.3311 163.419 66.7615V63.6365C163.419 63.0669 162.953 62.6071 162.376 62.6071Z" fill="#263544"/>
<path d="M165.873 61.7881C165.466 61.3854 164.805 61.3854 164.399 61.7881C163.991 62.1907 163.991 62.8427 164.399 63.243L166.638 65.4529C166.842 65.6542 167.109 65.7549 167.376 65.7549C167.642 65.7549 167.909 65.6542 168.113 65.4529C168.521 65.0503 168.521 64.3983 168.113 63.998L165.873 61.7881Z" fill="#263544"/>
<path d="M169.409 58.7935H166.242C165.665 58.7935 165.199 59.2533 165.199 59.8229C165.199 60.3925 165.665 60.8524 166.242 60.8524H169.409C169.986 60.8524 170.452 60.3925 170.452 59.8229C170.452 59.2533 169.986 58.7935 169.409 58.7935Z" fill="#263544"/>
<path d="M165.104 58.2033C165.371 58.2033 165.637 58.1026 165.841 57.9013L168.08 55.6914C168.488 55.2888 168.488 54.6368 168.08 54.2364C167.672 53.8338 167.012 53.8338 166.606 54.2364L164.367 56.4463C163.959 56.849 163.959 57.5009 164.367 57.9013C164.571 58.1026 164.838 58.2033 165.104 58.2033Z" fill="#263544"/>
<path d="M162.376 57.1143C162.953 57.1143 163.419 56.6545 163.419 56.0849V52.9599C163.419 52.3902 162.953 51.9304 162.376 51.9304C161.798 51.9304 161.333 52.3902 161.333 52.9599V56.0849C161.333 56.6545 161.798 57.1143 162.376 57.1143Z" fill="#263544"/>
<path d="M158.957 57.9356C159.161 58.1369 159.427 58.2376 159.694 58.2376C159.96 58.2376 160.227 58.1369 160.431 57.9356C160.839 57.533 160.839 56.881 160.431 56.4806L158.192 54.2707C157.784 53.8681 157.123 53.8681 156.718 54.2707C156.31 54.6734 156.31 55.3253 156.718 55.7257L158.957 57.9356Z" fill="#263544"/>
<path d="M159.631 59.8229C159.631 59.2533 159.165 58.7935 158.588 58.7935H155.422C154.844 58.7935 154.378 59.2533 154.378 59.8229C154.378 60.3925 154.844 60.8524 155.422 60.8524H158.588C159.165 60.8524 159.631 60.3925 159.631 59.8229Z" fill="#263544"/>
<path d="M158.987 61.82L156.747 64.0299C156.339 64.4326 156.339 65.0846 156.747 65.4849C156.951 65.6862 157.218 65.7869 157.485 65.7869C157.751 65.7869 158.018 65.6862 158.222 65.4849L160.461 63.275C160.869 62.8724 160.869 62.2204 160.461 61.82C160.053 61.4174 159.392 61.4174 158.987 61.82Z" fill="#263544"/>
</g>
<defs>
<clipPath id="clip0_30_186">
<rect width="199" height="81" fill="white"/>
</clipPath>
</defs>
</svg>
