<svg width="185" height="65" viewBox="0 0 185 65" fill="none" xmlns="http://www.w3.org/2000/svg">
<g clip-path="url(#clip0_4_247)">
<path d="M62.253 62.0162H51.5557C55.3436 59.2274 57.8083 54.7439 57.8083 49.6968C57.8083 41.2583 50.9283 34.3936 42.4708 34.3936C34.0134 34.3936 27.1333 41.2583 27.1333 49.6968C27.1333 54.7439 29.5961 59.2274 33.386 62.0162H0.879556C0.392868 62.0162 0 62.4082 0 62.8938C0 63.3794 0.392868 63.7714 0.879556 63.7714H36.4527C38.3017 64.5612 40.3345 65 42.4689 65C44.6033 65 46.638 64.5612 48.487 63.7714H62.253C62.7397 63.7714 63.1326 63.3794 63.1326 62.8938C63.1326 62.4082 62.7397 62.0162 62.253 62.0162ZM28.8905 49.6968C28.8905 42.2256 34.9809 36.1488 42.4689 36.1488C49.9568 36.1488 56.0473 42.2256 56.0473 49.6968C56.0473 57.168 49.9568 63.2448 42.4689 63.2448C34.9809 63.2448 28.8905 57.168 28.8905 49.6968Z" fill="#263544"/>
<path d="M183.045 62.0162H162.575C166.363 59.2274 168.828 54.7439 168.828 49.6968C168.828 41.2583 161.948 34.3936 153.49 34.3936C145.033 34.3936 138.153 41.2583 138.153 49.6968C138.153 54.7439 140.616 59.2274 144.406 62.0162H121.674C121.187 62.0162 120.794 62.4082 120.794 62.8938C120.794 63.3794 121.187 63.7714 121.674 63.7714H147.474C149.323 64.5612 151.356 65 153.49 65C155.625 65 157.659 64.5612 159.509 63.7714H183.047C183.534 63.7714 183.927 63.3794 183.927 62.8938C183.927 62.4082 183.534 62.0162 183.047 62.0162H183.045ZM139.91 49.6968C139.91 42.2256 146 36.1488 153.488 36.1488C160.976 36.1488 167.067 42.2256 167.067 49.6968C167.067 57.168 160.976 63.2448 153.488 63.2448C146 63.2448 139.91 57.168 139.91 49.6968Z" fill="#263544"/>
<path d="M134.963 23.2073C134.963 22.7217 134.57 22.3297 134.083 22.3297C133.597 22.3297 133.204 22.7217 133.204 23.2073V35.8836C133.204 35.9011 133.204 35.9206 133.204 35.9382C133.204 35.9577 133.304 37.8864 132.094 39.1657C131.339 39.9634 130.2 40.369 128.706 40.369H112.484C111.997 40.369 111.604 40.761 111.604 41.2466C111.604 41.7322 111.997 42.1242 112.484 42.1242H128.706C130.712 42.1242 132.287 41.5294 133.388 40.3554C135.029 38.6041 134.977 36.1936 134.961 35.8602V23.2073H134.963Z" fill="#263544"/>
<path d="M88.6397 15.309V7.70327C88.6397 5.60681 86.9295 3.90039 84.8283 3.90039H75.6418C73.5407 3.90039 71.8304 5.60681 71.8304 7.70327V15.309C71.8304 17.4055 73.5407 19.1119 75.6418 19.1119H84.8283C86.9295 19.1119 88.6397 17.4055 88.6397 15.309ZM73.5895 15.309V7.70327C73.5895 6.57411 74.5101 5.65557 75.6418 5.65557H84.8283C85.96 5.65557 86.8806 6.57411 86.8806 7.70327V15.309C86.8806 16.4382 85.96 17.3567 84.8283 17.3567H75.6418C74.5101 17.3567 73.5895 16.4382 73.5895 15.309Z" fill="#263544"/>
<path d="M100.269 19.1119H123.92C125.339 19.1119 126.443 18.4703 126.873 17.3957C127.389 16.1008 126.83 14.5524 125.339 13.1443C125.329 13.1346 125.319 13.1268 125.309 13.119L118.275 7.04215C115.224 4.38599 113.338 3.90039 110.726 3.90039H100.269C98.1682 3.90039 96.458 5.60681 96.458 7.70327V15.309C96.458 17.4055 98.1682 19.1119 100.269 19.1119ZM98.2171 7.70327C98.2171 6.57411 99.1377 5.65557 100.269 5.65557H110.726C112.994 5.65557 114.456 6.04756 117.122 8.36634L124.143 14.4314C125.223 15.4572 125.407 16.3173 125.237 16.7463C125.085 17.1286 124.592 17.3567 123.92 17.3567H100.269C99.1377 17.3567 98.2171 16.4382 98.2171 15.309V7.70327Z" fill="#263544"/>
<path d="M103.69 22.2322H97.6307C97.1441 22.2322 96.7512 22.6242 96.7512 23.1098C96.7512 23.5954 97.1441 23.9874 97.6307 23.9874H103.69C104.177 23.9874 104.569 23.5954 104.569 23.1098C104.569 22.6242 104.177 22.2322 103.69 22.2322Z" fill="#263544"/>
<path d="M87.7602 23.1098C87.7602 22.6242 87.3673 22.2322 86.8806 22.2322H80.8214C80.3348 22.2322 79.9419 22.6242 79.9419 23.1098C79.9419 23.5954 80.3348 23.9874 80.8214 23.9874H86.8806C87.3673 23.9874 87.7602 23.5954 87.7602 23.1098Z" fill="#263544"/>
<path d="M181.843 37.8903L180.893 24.8123C180.774 22.8719 179.293 21.3683 177.207 21.0719C177.195 21.0719 177.182 21.068 177.17 21.068L137.754 17.1442L120.39 3.13981C118.703 1.58356 116.301 0 111.311 0H71.1444C69.0432 0 67.333 1.70642 67.333 3.80288V14.0414H8.6001C6.49894 14.0414 4.78869 15.7478 4.78869 17.8443V34.5185H4.69096C2.5898 34.5185 0.879555 36.2249 0.879555 38.3213V45.5371C0.879555 47.6335 2.5898 49.3399 4.69096 49.3399H24.5592C25.0459 49.3399 25.4387 48.9479 25.4387 48.4623C25.4387 39.0449 32.4537 32.2114 42.121 32.2114C50.854 32.2114 60.1362 37.9079 60.1362 48.4623C60.1362 48.9479 60.5291 49.3399 61.0158 49.3399H135.186C135.669 49.3399 136.061 48.9499 136.065 48.4682C136.12 39.7547 143.956 32.6658 153.531 32.6658C163.107 32.6658 170.943 39.7547 170.997 48.4682C171.001 48.9499 171.394 49.3399 171.877 49.3399H181.189C183.29 49.3399 185 47.6335 185 45.5371V41.6367C185 39.7625 183.634 38.2004 181.843 37.8903ZM183.241 45.5371C183.241 46.6662 182.32 47.5848 181.189 47.5848H172.727C172.172 38.3135 163.752 30.9106 153.531 30.9106C143.311 30.9106 134.889 38.3135 134.336 47.5848H61.8738C61.6432 42.7307 59.4971 38.374 55.7736 35.242C52.1577 32.2016 47.1833 30.4562 42.121 30.4562C37.0586 30.4562 32.4713 32.2016 29.0996 35.3707C25.8042 38.4676 23.9063 42.7775 23.6992 47.5848H4.69096C3.55927 47.5848 2.63867 46.6662 2.63867 45.5371V38.3213C2.63867 37.1922 3.55927 36.2736 4.69096 36.2736H13.7797C14.2664 36.2736 14.6593 35.8816 14.6593 35.396C14.6593 34.9104 14.2664 34.5185 13.7797 34.5185H11.6297V22.9148C11.6297 22.4292 11.2368 22.0372 10.7501 22.0372H8.11146C7.62477 22.0372 7.2319 22.4292 7.2319 22.9148C7.2319 23.4004 7.62477 23.7924 8.11146 23.7924H9.87057V34.5185H6.54781V17.8443C6.54781 16.7151 7.46841 15.7966 8.6001 15.7966H68.2145C68.7012 15.7966 69.094 15.4046 69.094 14.919V3.80288C69.094 2.67372 70.0146 1.75518 71.1463 1.75518H91.5716V35.0392C91.5716 37.2136 91.2549 38.5144 90.5435 39.2613C89.8027 40.0395 88.4208 40.4022 86.1965 40.4022C85.7098 40.4022 85.3169 40.7942 85.3169 41.2798C85.3169 41.7654 85.7098 42.1574 86.1965 42.1574C91.4641 42.1574 93.3307 40.2949 93.3307 35.0392V1.75518H111.313C115.703 1.75518 117.706 3.04815 119.217 4.44644C119.231 4.4601 119.246 4.47375 119.262 4.48545L136.853 18.6731C136.986 18.7804 137.148 18.8467 137.318 18.8642L176.976 22.8114C178.224 22.9948 179.07 23.8216 179.138 24.9293L179.283 26.9127H177.475C176.988 26.9127 176.595 27.3047 176.595 27.7903V35.4936C176.595 35.9791 176.988 36.3711 177.475 36.3711C177.962 36.3711 178.354 35.9791 178.354 35.4936V28.6679H179.41L180.074 37.8338H175.814C175.327 37.8338 174.934 38.2258 174.934 38.7114C174.934 39.197 175.327 39.589 175.814 39.589H181.189C182.32 39.589 183.241 40.5075 183.241 41.6367V45.5371Z" fill="#263544"/>
<path d="M42.0565 22.7841C37.0997 22.7841 32.395 24.2429 28.4527 27.0024C24.6237 29.682 21.768 33.4926 20.4116 37.7304C20.263 38.1926 20.5191 38.686 20.9823 38.8342C21.0722 38.8635 21.1621 38.8752 21.2501 38.8752C21.6234 38.8752 21.9674 38.6373 22.0886 38.2648C24.6784 30.1832 32.8895 24.5393 42.0584 24.5393C48.2818 24.5393 54.1298 27.0706 58.1015 31.4859C58.426 31.8467 58.983 31.8759 59.3446 31.5522C59.7062 31.2285 59.7355 30.6727 59.4111 30.3119C55.1052 25.528 48.7802 22.7822 42.0584 22.7822L42.0565 22.7841Z" fill="#263544"/>
<path d="M153.858 25.7094C147.91 25.7094 142.297 27.8312 138.051 31.6868C137.692 32.0124 137.666 32.5682 137.993 32.9271C138.319 33.2859 138.876 33.3113 139.236 32.9856C143.157 29.4265 148.35 27.4665 153.858 27.4665C160.677 27.4665 167.075 30.5478 170.97 35.7081C171.142 35.9362 171.406 36.0571 171.674 36.0571C171.857 36.0571 172.043 36.0006 172.201 35.8797C172.59 35.5871 172.667 35.0372 172.375 34.6511C168.15 29.052 161.227 25.7094 153.858 25.7094Z" fill="#263544"/>
<path d="M42.4689 40.763C37.5316 40.763 33.515 44.7707 33.515 49.6968C33.515 54.623 37.5316 58.6307 42.4689 58.6307C47.4061 58.6307 51.4228 54.623 51.4228 49.6968C51.4228 44.7707 47.4061 40.763 42.4689 40.763ZM42.4689 56.8736C38.5031 56.8736 35.2741 53.6538 35.2741 49.6949C35.2741 45.736 38.5011 42.5162 42.4689 42.5162C46.4367 42.5162 49.6637 45.736 49.6637 49.6949C49.6637 53.6538 46.4367 56.8736 42.4689 56.8736Z" fill="#263544"/>
<path d="M42.4142 51.5359C41.9275 51.5359 41.5346 51.9279 41.5346 52.4135V54.6835C41.5346 55.1691 41.9275 55.5611 42.4142 55.5611C42.9008 55.5611 43.2937 55.1691 43.2937 54.6835V52.4135C43.2937 51.9279 42.9008 51.5359 42.4142 51.5359Z" fill="#263544"/>
<path d="M45.0294 50.9781C44.6854 50.6348 44.1283 50.6348 43.7863 50.9781C43.4423 51.3213 43.4423 51.8771 43.7863 52.2184L45.3949 53.8234C45.5669 53.995 45.7917 54.0808 46.0164 54.0808C46.2412 54.0808 46.466 53.995 46.638 53.8234C46.982 53.4802 46.982 52.9244 46.638 52.5831L45.0294 50.9781Z" fill="#263544"/>
<path d="M45.1994 48.7549C44.7127 48.7549 44.3199 49.1469 44.3199 49.6325C44.3199 50.1181 44.7127 50.5101 45.1994 50.5101H47.4745C47.9612 50.5101 48.3541 50.1181 48.3541 49.6325C48.3541 49.1469 47.9612 48.7549 47.4745 48.7549H45.1994Z" fill="#263544"/>
<path d="M44.3824 48.595C44.6072 48.595 44.832 48.5092 45.004 48.3376L46.6126 46.7326C46.9566 46.3893 46.9566 45.8335 46.6126 45.4922C46.2686 45.149 45.7115 45.149 45.3695 45.4922L43.7609 47.0972C43.4169 47.4405 43.4169 47.9963 43.7609 48.3376C43.9329 48.5092 44.1576 48.595 44.3824 48.595Z" fill="#263544"/>
<path d="M42.4142 43.778C41.9275 43.778 41.5346 44.1699 41.5346 44.6555V46.9256C41.5346 47.4112 41.9275 47.8032 42.4142 47.8032C42.9008 47.8032 43.2937 47.4112 43.2937 46.9256V44.6555C43.2937 44.1699 42.9008 43.778 42.4142 43.778Z" fill="#263544"/>
<path d="M39.8732 48.3629C40.0452 48.5345 40.27 48.6203 40.4948 48.6203C40.7195 48.6203 40.9443 48.5345 41.1163 48.3629C41.4603 48.0197 41.4603 47.4639 41.1163 47.1226L39.5077 45.5176C39.1637 45.1743 38.6067 45.1743 38.2646 45.5176C37.9206 45.8608 37.9206 46.4166 38.2646 46.7579L39.8732 48.3629Z" fill="#263544"/>
<path d="M40.5808 49.6325C40.5808 49.1469 40.1879 48.7549 39.7012 48.7549H37.4261C36.9394 48.7549 36.5465 49.1469 36.5465 49.6325C36.5465 50.1181 36.9394 50.5101 37.4261 50.5101H39.7012C40.1879 50.5101 40.5808 50.1181 40.5808 49.6325Z" fill="#263544"/>
<path d="M39.8967 51.0015L38.2881 52.6065C37.9441 52.9498 37.9441 53.5056 38.2881 53.8468C38.4601 54.0185 38.6848 54.1043 38.9096 54.1043C39.1344 54.1043 39.3592 54.0185 39.5312 53.8468L41.1398 52.2418C41.4838 51.8986 41.4838 51.3428 41.1398 51.0015C40.7958 50.6583 40.2387 50.6583 39.8967 51.0015Z" fill="#263544"/>
<path d="M153.488 40.763C148.551 40.763 144.535 44.7707 144.535 49.6968C144.535 54.623 148.551 58.6307 153.488 58.6307C158.426 58.6307 162.442 54.623 162.442 49.6968C162.442 44.7707 158.426 40.763 153.488 40.763ZM153.488 56.8736C149.523 56.8736 146.294 53.6538 146.294 49.6949C146.294 45.736 149.521 42.5162 153.488 42.5162C157.456 42.5162 160.683 45.736 160.683 49.6949C160.683 53.6538 157.456 56.8736 153.488 56.8736Z" fill="#263544"/>
<path d="M153.434 51.5359C152.947 51.5359 152.554 51.9279 152.554 52.4135V54.6835C152.554 55.1691 152.947 55.5611 153.434 55.5611C153.92 55.5611 154.313 55.1691 154.313 54.6835V52.4135C154.313 51.9279 153.92 51.5359 153.434 51.5359Z" fill="#263544"/>
<path d="M156.049 50.9781C155.705 50.6348 155.148 50.6348 154.806 50.9781C154.462 51.3213 154.462 51.8771 154.806 52.2184L156.414 53.8234C156.586 53.995 156.811 54.0808 157.036 54.0808C157.261 54.0808 157.486 53.995 157.658 53.8234C158.002 53.4802 158.002 52.9244 157.658 52.5831L156.049 50.9781Z" fill="#263544"/>
<path d="M156.219 48.7549C155.732 48.7549 155.339 49.1469 155.339 49.6325C155.339 50.1181 155.732 50.5101 156.219 50.5101H158.494C158.981 50.5101 159.374 50.1181 159.374 49.6325C159.374 49.1469 158.981 48.7549 158.494 48.7549H156.219Z" fill="#263544"/>
<path d="M155.402 48.595C155.627 48.595 155.852 48.5092 156.024 48.3376L157.632 46.7326C157.976 46.3893 157.976 45.8335 157.632 45.4922C157.288 45.149 156.731 45.149 156.389 45.4922L154.78 47.0972C154.436 47.4405 154.436 47.9963 154.78 48.3376C154.952 48.5092 155.177 48.595 155.402 48.595Z" fill="#263544"/>
<path d="M153.434 43.778C152.947 43.778 152.554 44.1699 152.554 44.6555V46.9256C152.554 47.4112 152.947 47.8032 153.434 47.8032C153.92 47.8032 154.313 47.4112 154.313 46.9256V44.6555C154.313 44.1699 153.92 43.778 153.434 43.778Z" fill="#263544"/>
<path d="M150.893 48.3629C151.065 48.5345 151.29 48.6203 151.514 48.6203C151.739 48.6203 151.964 48.5345 152.136 48.3629C152.48 48.0197 152.48 47.4639 152.136 47.1226L150.527 45.5176C150.183 45.1743 149.626 45.1743 149.284 45.5176C148.94 45.8608 148.94 46.4166 149.284 46.7579L150.893 48.3629Z" fill="#263544"/>
<path d="M151.6 49.6325C151.6 49.1469 151.207 48.7549 150.721 48.7549H148.446C147.959 48.7549 147.566 49.1469 147.566 49.6325C147.566 50.1181 147.959 50.5101 148.446 50.5101H150.721C151.207 50.5101 151.6 50.1181 151.6 49.6325Z" fill="#263544"/>
<path d="M150.916 51.0015L149.308 52.6065C148.964 52.9498 148.964 53.5056 149.308 53.8468C149.48 54.0185 149.704 54.1043 149.929 54.1043C150.154 54.1043 150.379 54.0185 150.551 53.8468L152.159 52.2418C152.503 51.8986 152.503 51.3428 152.159 51.0015C151.815 50.6583 151.258 50.6583 150.916 51.0015Z" fill="#263544"/>
<path d="M68.2145 22.1347C67.7278 22.1347 67.3349 22.5267 67.3349 23.0123V40.9541C67.3349 41.4397 67.7278 41.8317 68.2145 41.8317C68.7012 41.8317 69.094 41.4397 69.094 40.9541V23.0123C69.094 22.5267 68.7012 22.1347 68.2145 22.1347Z" fill="#263544"/>
</g>
<defs>
<clipPath id="clip0_4_247">
<rect width="185" height="65" fill="white"/>
</clipPath>
</defs>
</svg>
